solid Cube
  facet normal 0 0 50
    outer loop
      vertex -50 -50 50
      vertex 50 -50 50
      vertex 50 50 50
    endloop
  endfacet
  facet normal 0 0 50
    outer loop
      vertex -50 -50 50
      vertex 50 50 50
      vertex -50 50 50
    endloop
  endfacet
  facet normal 0 0 -50
    outer loop
      vertex -50 -50 -50
      vertex 50 50 -50
      vertex 50 -50 -50
    endloop
  endfacet
  facet normal 0 0 -50
    outer loop
      vertex -50 -50 -50
      vertex -50 50 -50
      vertex 50 50 -50
    endloop
  endfacet
  facet normal 50 0 0
    outer loop
      vertex 50 -50 -50
      vertex 50 50 50
      vertex 50 -50 50
    endloop
  endfacet
  facet normal 50 0 0
    outer loop
      vertex 50 -50 -50
      vertex 50 50 -50
      vertex 50 50 50
    endloop
  endfacet
  facet normal -50 0 0
    outer loop
      vertex -50 -50 -50
      vertex -50 -50 50
      vertex -50 50 50
    endloop
  endfacet
  facet normal -50 0 0
    outer loop
      vertex -50 -50 -50
      vertex -50 50 50
      vertex -50 50 -50
    endloop
  endfacet
  facet normal 0 50 0
    outer loop
      vertex -50 50 -50
      vertex 50 50 50
      vertex 50 50 -50
    endloop
  endfacet
  facet normal 0 50 0
    outer loop
      vertex -50 50 -50
      vertex -50 50 50
      vertex 50 50 50
    endloop
  endfacet
  facet normal 0 -50 0
    outer loop
      vertex -50 -50 -50
      vertex 50 -50 -50
      vertex 50 -50 50
    endloop
  endfacet
  facet normal 0 -50 0
    outer loop
      vertex -50 -50 -50
      vertex 50 -50 50
      vertex -50 -50 50
    endloop
  endfacet
endsolid Cube
